<svg xmlns="http://www.w3.org/2000/svg" width="48" height="48" viewBox="0 0 192 192">

  <style>
    @media (prefers-color-scheme: dark) {
      svg { filter: invert(0%) hue-rotate(0deg) saturate(100%) contrast(100%) brightness(1); }
    }
  </style><path fill="#1C1C1C" d="M0 0h192v192H0z"/><path fill="#FCC401" d="M109 22v2h11v-2h4v2h2l1 7h2l1 5c1 .3 2 .7 3 1v3h2l1 5h2l1 8h2c.9 2.3 1.1 4.2 1.1 6.7 0 .6-.1 1.2-.1 1.9V63h2v6h2v20h2v2c.5 0 .9.1 1.4.1 2.9.3 5 .5 7.5 2.1 1.6 2.6 1.8 4.8 2.1 7.8h2c.3 2 .7 4 1 6h2c1.2 15.1 1.2 15.1 1 22l3 1c.1 5.8.1 5.8-1 8h-2v3l3 1v2c.7.3 1.3.7 2 1-2 2-2 2-5 2-4-3.4-4-3.4-4-6l-2 1c-.3 2.3-.7 4.6-1 7h-4c-1.4-2.8-1.1-4.9-1-8h2v-9c-1.4.3-1.4.3-2.9.6-2.3.4-2.9.5-5.1-.6l1-3h2v-2c2.6-.3 5.3-.7 8-1 .3-2 .7-4 1-6h2v-7h-2l-1-9-3-1v-3h-2c-.3-1.7-.7-3.3-1-5h-3v-2c-1.7.3-3.3.7-5 1v-2h-8v2l3 1v2c1.3-.3 2.6-.7 4-1 .2 5.6-.6 10.5-2 16h-2c-.3 3-.7 5.9-1 9h-2c-.3 2-.7 4-1 6h-2c-.1.7-.1 1.5-.2 2.2-.9 3.2-1.8 4-4.4 5.8-3.5 2.5-3.5 2.5-4.7 6.4v5.7c.1 1 .1 2 .1 3.1 0 1 0 2.1.1 3.1 0 2.6 0 5.1.1 7.7h2v4h-5c-.9-2.3-1.1-4.2-1.1-6.7 0-.6.1-1.2.1-1.9V155h-2v-11c-2 .3-4 .7-6 1v2l-9 1v2h-3c.5 5.4.5 5.4 1 11h-4v-2h-2v-7c-.7 0-1.3.1-2 .1-3 .2-6 .3-9.1.5-1 0-2 .1-3.1.1-5.4.3-10.5.3-15.8-.7v-2c-2.6-.3-5.3-.7-8-1v-2c-1.3-.3-2.6-.7-4-1v-4c-1.3-.3-2.6-.7-4-1l-.6-1.5c-.3-.6-.6-1.3-.8-1.9-.3-.7-.6-1.3-.8-2-.7-1.6-.7-1.6-1.8-2.6-.1-1.6-.1-1.6-.1-3.6.1-.9.1-.9.1-1.9V126h1v6h11v-2h2v-7c-1.6.1-3.3.3-4.9.4l-2.7.3c-2.4.2-2.4.2-4.4 1.3.3-1.3.7-2.6 1-4 5.9-.3 11.9-.7 18-1v-2c4.6-3 4.6-3 8-3l1-3h2l1-3h2l1-3h2l1-3 4-1v-4H69c-.3 1-.7 2-1 3h-2v2H54v-2h-3c-1.7-4.1-1.1-8.7-1-13h10c-.3-.7-.7-1.3-1-2-.1-2 0-4 0-6l4-1v7h2c1.6 1.2 1.6 1.2 3 3v5h12v-2c3.6-.3 7.3-.7 11-1v-2h3l1-3h2c.3-2.6.7-5.3 1-8h2v-3h-2v-4h2c.3-3 .7-5.9 1-9h2c0-1.1 0-2.3.1-3.5.1-5.1.2-10.2.3-15.4 0-1.8 0-3.6.1-5.4 0-1.7 0-3.4.1-5.2 0-1.6 0-3.2.1-4.8.4-4.5.7-5.7 5.3-5.7"/><path fill="#E49F01" d="M120 22h4v2h2l1 7h2l1 5c1 .3 2 .7 3 1v3h2l1 5h2l1 8h2c.9 2.3 1.1 4.2 1.1 6.7 0 .6-.1 1.2-.1 1.9V63h2v6h2v20h2v2c.5 0 .9.1 1.4.1 2.9.3 5 .5 7.5 2.1 1.6 2.6 1.8 4.8 2.1 7.8h2c.3 2 .7 4 1 6h2c1.2 15.1 1.2 15.1 1 22l3 1c.1 5.8.1 5.8-1 8h-2v3l3 1v2c.7.3 1.3.7 2 1-2 2-2 2-5 2-4-3.4-4-3.4-4-6l-2 1c-.3 2.3-.7 4.6-1 7h-4c-1.4-2.8-1.1-4.9-1-8h2v-9c-1.4.3-1.4.3-2.9.6-2.3.4-2.9.5-5.1-.6l1-3h2v-2c2.6-.3 5.3-.7 8-1 .3-2 .7-4 1-6h2v-7h-2l-1-9-3-1v-3h-2c-.3-1.7-.7-3.3-1-5h-3v-2c-1.7.3-3.3.7-5 1v-2h-8v2l3 1v2c1.3-.3 2.6-.7 4-1 .2 5.6-.6 10.5-2 16h-2c-.3 3-.7 5.9-1 9h-2c-.3 2-.7 4-1 6h-2c-.1.7-.1 1.5-.2 2.2-.9 3.2-1.8 4-4.4 5.8-3.5 2.5-3.5 2.5-4.7 6.4v5.7c.1 1 .1 2 .1 3.1 0 1 0 2.1.1 3.1 0 2.6 0 5.1.1 7.7h2v4h-5c-.9-2.3-1.1-4.2-1.1-6.7 0-.6.1-1.2.1-1.9V155h-2v-11c-2 .3-4 .7-6 1v2l-9 1v2h-3c.5 5.4.5 5.4 1 11h-4v-2h-2v-7c-.7 0-1.3.1-2 .1-3 .2-6 .3-9.1.5-1 0-2 .1-3.1.1-5.4.3-10.5.3-15.8-.7v-2c-2.6-.3-5.3-.7-8-1v-2c-1.3-.3-2.6-.7-4-1v-4c-1.3-.3-2.6-.7-4-1l-.6-1.5c-.3-.6-.6-1.3-.8-1.9-.3-.7-.6-1.3-.8-2-.7-1.6-.7-1.6-1.8-2.6-.1-1.6-.1-1.6-.1-3.6.1-.9.1-.9.1-1.9V126h1v6h11v-2h2c.7-1.7 1.3-3.3 2-5h2c-.3 3.3-.7 6.6-1 10 3.3.3 6.6.7 10 1v2h17v-2l9-1v-2c2.6-.3 5.3-.7 8-1v-2l6-1v-2c1-.7 1.9-1.3 2.9-2 .5-.4 1-.7 1.6-1.1 1.5-.9 1.5-.9 3.5-.9.3-1.7.7-3.3 1-5h2l1-3h2c.3-1.7.7-3.3 1-5h2c.3-5 .7-9.9 1-15h2V60h-2l-1-9h-2l-1-8-3-1v-2h-2l-1-9h-2v-3c-2.6-.3-5.3-.7-8-1v-2h10z"/><path fill="#E59F01" d="M120 22h4v2h2c.3 2.3.7 4.6 1 7h2c.3 1.6.7 3.3 1 5 1 .3 2 .7 3 1v3h2c.3 1.6.7 3.3 1 5h2c.3 2.6.7 5.3 1 8h2c.9 2.3 1.1 4.2 1.1 6.7 0 .6-.1 1.2-.1 1.9V63h2v6h2v20h2v2c.5 0 .9.1 1.4.1 2.9.3 5 .5 7.5 2.1 1.6 2.6 1.8 4.8 2.1 7.8h2c.3 2 .7 4 1 6h2c1.2 15.1 1.2 15.1 1 22 1 .3 2 .7 3 1 .1 5.8.1 5.8-1 8h-2v3c1 .3 2 .7 3 1v2l2 1c-2 2-2 2-5 2-4-3.4-4-3.4-4-6l-2 1c-.3 2.3-.7 4.6-1 7h-4c-1.4-2.8-1.1-4.9-1-8h2v-9c-.9.2-1.9.4-2.9.6-2.3.4-2.9.5-5.1-.6l1-3h2v-2c2.6-.3 5.3-.7 8-1 .3-2 .7-4 1-6h2v-7h-2l-1-9c-1-.3-2-.7-3-1v-3h-2c-.3-1.7-.7-3.3-1-5h-3v-2l-5 1v-2h-9v2l-3 1V60h-2c-.3-3-.7-5.9-1-9h-2c-.3-2.6-.7-5.3-1-8-1-.3-2-.7-3-1v-2h-2c-.3-3-.7-5.9-1-9h-2v-3c-2.6-.3-5.3-.7-8-1v-2h10z"/><path fill="#BC2102" d="M106 165c1.3.3 2.6.7 4 1v2h4v2c.6.1 1.1.1 1.7.2l2.2.2c.8.1 1.5.2 2.3.3 1.8.3 1.8.3 2.8 1.3 1.5.1 1.5.1 3.2.1h3.9c1 0 1 0 2-.1h4.9c1.7 3.9 2.2 5.9 1 10h-5v2c-8.9 1.6-18.1 1.5-27 0v-2c-12.9-.5-12.9-.5-26-1v-2h-3v-3h3l-.3-1.5c-.1-.6-.2-1.2-.3-1.9-.1-.6-.2-1.2-.3-1.9-.1-1.7-.1-1.7.9-3.7h26z"/><path fill="#28221C" d="M118 144v11h2c.3 3.3.7 6.6 1 10 .8-.1 1.5-.2 2.3-.3l3-.3c.5 0 1-.1 1.5-.1 2.7-.3 4.8-.4 7.2.7l1 3c-4 5-4 5-7.9 5.2-5.2 0-9.4-1.3-14.1-3.2v-2h-4c-.3-.7-.7-1.3-1-2-1.5-.6-1.5-.6-3-1v2H95c-.3-1-.7-2-1-3 2.5-3 2.5-3 5.2-3.2l1.8.2c-.2-.4-.3-.8-.5-1.2-.6-2.1-.6-3.9-.6-6 0-.7.1-1.4.1-2.2V150h3v-2l9-1v-2c2.1-.6 3.8-1 6-1"/><path fill="#F29A56" d="M136 88c8.4-.2 8.4-.2 12 1v2c.5 0 .9.1 1.4.1 2.9.3 5 .5 7.5 2.1 1.6 2.6 1.8 4.8 2.1 7.8h2c.3 2 .7 4 1 6h2c1.2 15.1 1.2 15.1 1 22l3 1c.1 5.8.1 5.8-1 8h-2v3l3 1v2l2 1c-2 2-2 2-5 2-4-3.4-4-3.4-4-6l-2 1c-.3 2.3-.7 4.6-1 7h-4c-1.4-2.8-1.1-4.9-1-8h2v-9c-.9.2-1.9.4-2.9.6-2.3.4-2.9.5-5.1-.6.3-1 .7-2 1-3h2v-2c2.6-.3 5.3-.7 8-1 .3-2 .7-4 1-6h2v-7h-2c-.3-3-.7-5.9-1-9-1-.3-2-.7-3-1v-3h-2c-.3-1.7-.7-3.3-1-5h-3v-2c-1.7.3-3.3.7-5 1v-2h-8z"/><path fill="#F49B56" d="M63 79v7h2c1.6 1.2 1.6 1.2 3 3v5h12v-2c3.6-.3 7.3-.7 11-1v-2c1 .3 2 .7 3 1-.6 1-1.3 2-1.9 2.9-.4.6-.8 1.1-1.1 1.7-2.1 3-4 2.8-7.5 3.2-4.8.4-9.6.3-14.5.2-.3 1-.7 2-1 3h-2v2H54v-2h-3c-1.7-4.1-1.1-8.7-1-13h10c-.3-.7-.7-1.3-1-2-.2-2-.1-4 0-6 1-1 1-1 4-1"/><path fill="#4E452E" d="m126 1 1 4h-4v2c-2.6.3-5.3.7-8 1v15h5v1h-11c-.7-3-1.1-4.8-1.1-7.8 0-.6.1-1.2.1-1.8V13h-4v-2H94c-.1-6.8-.1-6.8 1-9 .9 0 .9 0 1.7-.1 2.7-.1 5.3-.2 7.9-.3.9-.1 1.8-.1 2.8-.2 5.5-.2 5.5-.2 11.1-1 2.8-.4 4.8-.1 7.5.6"/><path fill="#FDF3E9" d="M111 65c1.3 0 2.6 0 3.9-.1h2.2c1.9.1 1.9.1 3.9 1.1v2c1 .3 2 .7 3 1 0 1.3 0 2.6.1 3.9v2.3C124 77 124 77 123 78c-1.7.1-3.4.1-5.1.1-.9 0-1.8-.1-2.7-.1H113c-.3.7-.7 1.3-1 2h-8v-2c-1.3-.3-2.6-.7-4-1v-2h-2v-4h2v-3c2.9-2.5 5.4-2.2 9-2v2h2z"/><path fill="#D32706" d="M116.125 169.875c.8.1.8.1 1.7.3 4 .7 4 .7 5.2 1.8 1.4.2 1.4.2 3.1.1h5.9c1.7 0 3.3-.1 5-.1l1 5h-3v2c-4.1 1-7.9 1.1-12 1v2h-6v-2c-.8 0-.8 0-1.6.1-4 0-7.6-.1-11.4-1.1-.4-5.5-.4-5.5 1.3-7.8 3.7-2.6 6.5-2.1 10.8-1.3"/><path fill="#B99086" d="M77 176c13.4.5 13.4.5 27 1v2c4.3.3 8.6.7 13 1v2h6v-2c5.9-.5 5.9-.5 12-1v-2h4c-.3 1.7-.7 3.3-1 5h-5v2c-8.9 1.6-18.1 1.5-27 0v-2c-12.9-.5-12.9-.5-26-1v-2h-3z"/><path fill="#FAAA54" d="M108 61c5.9-.3 12.5-.4 17 3.9 2 4.2 1.2 9.6 1 14.1h-2c-.1.7-.2 1.5-.3 2.2-.7 3-1.8 4.5-3.7 6.8h-8v-2h-3c-.3-1.3-.7-2.6-1-4h-2v-2h6c.3-1 .7-2 1-3h10v-8c-.7-.3-1.3-.7-2-1v-2c-3.3-.3-6.6-.7-10-1v3h-2v-2c-2.6.7-5.3 1.3-8 2v-6h2v3h3v-2h2z"/><path fill="#342E21" d="M124 0c1.3-.1 2.5-.1 3.8-.1.7 0 1.4-.1 2.2-.1 2.2.2 3.3.8 5 2.2-.3 1.3-.7 2.6-1 4-3.5 1.6-6.1 2.2-10 2v2h-3v6h2v5h2c.3 1 .7 2 1 3h-2v-2c-3 .3-5.9.7-9 1-.8-3.2-1.1-5.4-1.1-8.6V12c.1-2 .1-2 1.1-4 2.6-.3 5.3-.7 8-1V5h4c-.7-2.4-1.1-3.1-3-5"/><path fill="#2E2618" d="M136 92c4.5-.1 8.6-.1 13 1v2h3c.7 2 1.3 4 2 6-1.7.3-3.3.7-5 1v3c-.6.1-1.2.2-1.9.3-2.5.8-3 1.3-4.1 3.7-.4 1.7-.7 3.3-1 5h2c-.3 1.7-.7 3.3-1 5h-4v3h-2l-1 5c-1-2.4-1-3.6 0-6h2l1-9h2c.1-.9.1-.9.2-1.7.5-4.8 1.1-9.5 1.8-14.3-1.3.3-2.6.7-4 1-3-2.8-3-2.8-3-5"/><path fill="#201E1D" d="M113 146h4v4h-5v3h-4v9c-.7-.3-1.3-.7-2-1v-2c-.8 0-1.6 0-2.4.1-2.6-.1-2.6-.1-3.6-1.1-.1-1.4-.1-2.7-.1-4.1 0-.7.1-1.4.1-2.2V150c4.4-1.2 8.4-2.3 13-2z"/><path fill="#E99452" d="M123 140c.3 6.9.7 13.9 1 21h2v4h-5c-.9-2.3-1.1-4.2-1.1-6.7 0-.6.1-1.2.1-1.9V155h-2v-13c4-2 4-2 5-2"/><path fill="#4C3F21" d="M46 123h13v7h-2v2H46c-1.1-6.8-1.1-6.8 0-9"/><path fill="#3F4AB1" d="M135 165c.3 1 .7 2 1 3-4 5-4 5-8.3 5.2-1.2 0-1.2 0-2.4.1-2.8-.4-3.6-1.2-5.3-3.3 1-2.7 1.7-3.8 4.1-5.3 3.8-.9 7.1-.4 10.9.3"/><path fill="#C79C93" d="M77 176c13.4.5 13.4.5 27 1v3c-3.9 0-7.9 0-11.8.1h-9.7c-2.1-.1-3.6-.3-5.5-1.1z"/><path fill="#3B4CBB" d="M101 159c4.6-.4 4.6-.4 6.8 1.5l1.2 1.5c-.3 1-.7 2-1 3h-2v2H95c-.3-1-.7-2-1-3 2.5-3 2.5-3 5.2-3.2.6.1 1.2.1 1.8.2z"/><path fill="#A98D87" d="M117 180v2h5v1c-7.9.5-7.9.5-16 1v-2c-12.9-.5-12.9-.5-26-1v-1c26-1.4 26-1.4 37 0"/><path fill="#F69B53" d="M136 88c8.4-.2 8.4-.2 12 1v2h5l-2 1v3h-2v-2c-1.7.3-3.3.7-5 1v-2h-8z"/><path fill="#A67510" d="M144 69h2v20c-3-.3-5.9-.7-9-1v-4l5 1v2h2z"/><path fill="#3D2F1D" d="M89 97c-.3 1.7-.7 3.3-1 5-.6.3-1.3.6-1.9.9-2.3.9-2.3.9-3.1 3.1h-2v-7H69v-1c6.7-.6 13.3-1.2 20-1"/><path fill="#382B19" d="M133 127c1 .3 2 .7 3 1-1.3 3.9-2.5 5.9-6 8h-2c-.1.5-.2.9-.4 1.4-.6 1.6-.6 1.6-2.6 2.6-.2 10.5-.2 10.5 1 21h-2c-1-4.8-1.1-9.4-1.1-14.4 0-.7 0-1.4.1-2.2V139c1-.3 2-.7 3-1 .3-1 .7-2 1-3h2c.3-1 .7-2 1-3h2c.3-1.7.7-3.3 1-5"/><path fill="#ED9754" d="M122 79v2h-4c-.3 1-.7 2-1 3h-9v-2h-2v-2c5.4-.7 10.6-1.1 16-1"/><path fill="#D9AB15" d="M108 61h7c-.3 1.3-.7 2.6-1 4h-3v3h-2v-2c-2.6.7-5.3 1.3-8 2v-6h2v3h3v-2h2z"/><path fill="#DB7D31" d="M97 150h3c.3 3.6.7 7.3 1 11h-4v-2h-2v-7h2z"/><path fill="#D6A80F" d="M84 103c.3.7.7 1.3 1 2-2.9 3.7-6 7.4-9 11h-4c-.3 1.3-.7 2.6-1 4h-5v-2c4.6-3 4.6-3 8-3 .3-1 .7-2 1-3h2c.3-1 .7-2 1-3h2c.3-1 .7-2 1-3h2c.3-1 .7-2 1-3"/><path fill="#FDA34E" d="M118 81c1 .3 2 .7 3 1-.3 2-.7 4-1 6h-8v-2h-3v-2c2.6-.3 5.3-.7 8-1 .3-.7.7-1.3 1-2"/><path fill="#E29052" d="M150 127h9c0 2 0 2-1.6 3.4-3 2-4.9 2.3-8.4 2.6-.7-.3-1.3-.7-2-1 .3-1 .7-2 1-3h2z"/><path fill="#3A3428" d="M51 125c2.3.3 4.6.7 7 1-.3 1.7-.7 3.3-1 5h-9c1-4 1-4 3-6"/><path fill="#C1871B" d="M136 92c4.5-.1 8.6-.1 13 1-.3.7-.7 1.3-1 2-.7-.3-1.3-.7-2-1v3h-2v6h-1v-7c-1.3.3-2.6.7-4 1-3-2.8-3-2.8-3-5"/><path fill="#2F2517" d="M95 152v7h2c-.3.7-.7 1.3-1 2-.7-.3-1.3-.7-2-1v-7H83v3h-3v-2h-8v-1c7.6-1.4 15.3-1.1 23-1"/><path fill="#FBB070" d="M124 69h1c.2 5.4.2 10-2 15l-2 1c-.3-1.3-.7-2.6-1-4h2v-2c-3.3.3-6.6.7-10 1 .3-1 .7-2 1-3h10c.3-2.6.7-5.3 1-8"/><path fill="#DA8C51" d="M155 138c.3 1.3.7 2.6 1 4h2c1.1 4.8 1.1 4.8 0 7h-4c-1.4-2.8-1.1-4.9-1-8h2z"/><path fill="#D77B2B" d="M123 140v15h-1v-8h-3c-.3-1.7-.7-3.3-1-5 3.9-2 3.9-2 5-2"/><path fill="#FBEEDD" d="M100 75h3v2c1.7-.3 3.3-.7 5-1v2h4v2h-8v-2c-1.3-.3-2.6-.7-4-1z"/><path fill="#BDAEAB" d="m129 181-4 2c.3.7.7 1.3 1 2h-12v-2c.6-.1 1.1-.1 1.7-.2.7-.1 1.5-.2 2.2-.2.8-.1 1.5-.2 2.3-.3 7.8-1.3 7.8-1.3 8.8-1.3"/><path fill="#494595" d="M101 159c4.6-.4 4.6-.4 6.8 1.5l1.2 1.5c-.3 1-.7 2-1 3h-2v2H95v-1h10v-6c-1.3.3-2.6.7-4 1z"/><path fill="#E39153" d="M167 141c.1.5.2.9.4 1.4.5 1.8.5 1.8 2.6 2.6-2 2-2 2-5 2-1.3-1.7-2.6-3.3-4-5 1.7-1.7 3.7-1.1 6-1"/><path fill="#433123" d="M148 132h7c1.2 5.5 1.2 5.5.1 7.9-.6.5-.6.5-1.1 1.1-.3-2-.7-4-1-6h-6c.3-1 .7-2 1-3"/><path fill="#DC8D50" d="M151 92c2.5-.3 3.6-.3 5.7 1.2 1.4 2 1.9 3.5 2.3 5.8l-2 1v-4h-3c.3 1.3.7 2.6 1 4h-2c-1.3-2.9-2-4.8-2-8"/><path fill="#A12616" d="M106 165c1.3.3 2.6.7 4 1v2h4c-.3.7-.7 1.3-1 2h-5c-.3-.7-.7-1.3-1-2H95v-1h11z"/><path fill="#423125" d="M164 113h2v10c.7-.3 1.3-.7 2-1v4h-2c.3 1 .7 2 1 3h-2c-1-2.1-1.1-3-1.1-5.3v-3.8c0-.7 0-1.3.1-2z"/><path fill="#BDA6A1" d="M135 177h4c-.3 1.7-.7 3.3-1 5-2 .3-4 .7-6 1-.3-1-.7-2-1-3h4z"/><path fill="#A4CDE6" d="M101 68c2.2 0 4 1.8 4 3 0 2.2-1.8 4-4 4-1.7 0-3-1.3-3-4 0-1.7 1.3-3 3-3"/><path fill="#F4BD0C" d="M93 90c.6 2.1 1 3.8 1 6-.5.1-.9.2-1.4.3-2.2 1-2.4 2-3.3 4.3-.2.6-.5 1.2-.7 1.9L88 104c-1-.3-2-.7-3-1 1-.3 2-.7 3-1 .1-.9.2-1.7.2-2.6.7-3.8 2.5-6.4 4.8-9.4"/><path fill="#573B26" d="M58 80h1c.3 2.6.7 5.3 1 8H50v-2h8z"/><path fill="#ADD8F3" d="M111 66h6c-.3 1.7-.7 3.3-1 5h-5z"/><path fill="#533C17" d="M136 92h7v3h-2v2c-2.7 0-3.3-1-5-3z"/><path fill="#EF9A61" d="M96 155h3v3h2v3h-4c-.3-2-.7-4-1-6"/><path fill="#2F2818" d="M66 114c1.7.3 3.3.7 5 1l-2 3h-3v2c-1-.3-2-.7-3-1 .3-.7.7-1.3 1-2h2z"/><path fill="#FC9E57" d="M159 105h3c.3 2.3.7 4.6 1 7h-3c-.3-2.3-.7-4.6-1-7"/><path fill="#D5A60F" d="M98 78c.7.3 1.3.7 2 1-.3 2.6-.7 5.3-1 8l-5 3c.3-1.3.7-2.6 1-4h2c.3-2.6.7-5.3 1-8"/><path fill="#554837" d="M115 63c-.3.7-.7 1.3-1 2h-3v3h-2v-2c-.7-.3-1.3-.7-2-1h2v-2c2.5-1.2 3.4-.8 6 0"/><path fill="#80651D" d="M46 123c1.9 2.1 2 2.8 1.6 5.7-.2.8-.4 1.5-.6 2.3h10v1H46c-1.1-6.8-1.1-6.8 0-9"/><path fill="#F48524" d="M136 88h6c-.3 1.3-.7 2.6-1 4h-5z"/><path fill="#463514" d="M141 53c1 .3 2 .7 3 1v9h-2c-.3-3.3-.7-6.6-1-10"/><path fill="#BBA8A4" d="M77 176h6c-.3 1-.7 2-1 3 .7.3 1.3.7 2 1-2.3-.3-4.6-.7-7-1z"/><path fill="#FD9F54" d="M119 147h3v8c-.3-.7-.7-1.3-1-2h-2z"/><path fill="#473223" d="M161 141c1.3 1.7 2.6 3.3 4 5-1.3-.3-2.6-.7-4-1l-2 2c-.3-1.7-.7-3.3-1-5 1-1 1-1 3-1"/></svg>